<?xml version="1.0" encoding="UTF-8" standalone="no"?>
<svg
   xmlns:dc="http://purl.org/dc/elements/1.1/"
   xmlns:cc="http://creativecommons.org/ns#"
   xmlns:rdf="http://www.w3.org/1999/02/22-rdf-syntax-ns#"
   xmlns:svg="http://www.w3.org/2000/svg"
   xmlns="http://www.w3.org/2000/svg"
   xmlns:sodipodi="http://sodipodi.sourceforge.net/DTD/sodipodi-0.dtd"
   xmlns:inkscape="http://www.inkscape.org/namespaces/inkscape"
   width="210mm"
   height="297mm"
   viewBox="0 0 210 297"
   version="1.1"
   id="svg164"
   inkscape:version="1.0.2-2 (e86c870879, 2021-01-15)"
   sodipodi:docname="logo.svg">
  <defs
     id="defs158" />
  <sodipodi:namedview
     id="base"
     pagecolor="#ffffff"
     bordercolor="#666666"
     borderopacity="1.0"
     inkscape:pageopacity="0.0"
     inkscape:pageshadow="2"
     inkscape:zoom="0.98994949"
     inkscape:cx="334.56468"
     inkscape:cy="400.76621"
     inkscape:document-units="mm"
     inkscape:current-layer="layer1"
     inkscape:document-rotation="0"
     showgrid="false"
     inkscape:object-paths="true"
     inkscape:snap-nodes="false"
     inkscape:window-width="1366"
     inkscape:window-height="715"
     inkscape:window-x="-8"
     inkscape:window-y="-8"
     inkscape:window-maximized="1" />
  <metadata
     id="metadata161">
    <rdf:RDF>
      <cc:Work
         rdf:about="">
        <dc:format>image/svg+xml</dc:format>
        <dc:type
           rdf:resource="http://purl.org/dc/dcmitype/StillImage" />
        <dc:title />
      </cc:Work>
    </rdf:RDF>
  </metadata>
  <g
     inkscape:label="Layer 1"
     inkscape:groupmode="layer"
     id="layer1">
    <path
       inkscape:connector-curvature="0"
       id="path5291"
       d="m 83.52891,113.0026 c -0.82149,0.39548 -1.60726,0.86199 -2.33032,1.45092 -2.422,1.51028 -4.07758,3.917 -5.46937,6.34578 -1.1194,2.64944 -2.25093,5.42795 -2.05725,8.36361 -0.34106,2.3182 0.29227,4.54915 1.14535,6.67155 1.02624,3.0339 2.92965,5.66743 5.22032,7.87405 2.09233,1.0916 3.77264,3.05279 6.2323,3.33973 2.75473,0.98455 5.74998,1.37628 8.64346,0.80584 2.35188,-0.33038 4.68576,-1.09504 6.73701,-2.287 3.89977,-2.53941 7.25139,-6.27331 8.52754,-10.82422 0.76379,-3.05646 1.06371,-6.28959 0.19453,-9.36037 -0.45778,-2.24008 -1.34834,-4.38473 -2.63981,-6.26581 -1.64717,-3.27748 -5.06656,-5.04536 -8.10145,-6.81251 -0.0357,-0.0145 -0.072,-0.0285 -0.10787,-0.043 0,0.038 0,0.0715 0,0.0954 -0.0231,0.26885 -0.0402,0.8185 -0.0971,1.00543 -0.0312,0.10285 -0.118,0.23663 -0.25552,0.40525 2.14451,0.96864 4.1,2.37815 5.71331,4.06854 1.61358,2.01643 3.28318,4.12541 3.80484,6.72178 0.42649,1.87552 0.78373,3.80515 0.83938,5.72127 -0.66967,3.5395 -1.51661,7.27725 -4.04005,10.00133 -2.13773,2.69999 -5.09961,4.84933 -8.51778,5.54215 -1.63352,0.78794 -3.3943,0.70715 -5.13564,0.83763 -2.33501,-0.36836 -4.76642,-0.51262 -6.91391,-1.60052 -2.50211,-0.96805 -4.28156,-3.08629 -6.19148,-4.86099 -1.87697,-2.71916 -3.59507,-5.80016 -3.60719,-9.19708 -0.16306,-2.9834 0.008,-6.14478 1.64862,-8.7402 1.32823,-2.83738 3.32454,-5.38845 5.94311,-7.11713 -0.0199,-0.42369 0.33852,-0.91524 0.41492,-1.15417 0.0689,-0.21583 0.21881,-0.62704 0.4019,-0.98735 z"
       style="fill:#ffffff;fill-opacity:1;stroke:none;stroke-width:0.058635"
       inkscape:export-xdpi="96"
       inkscape:export-ydpi="96" />
    <path
       inkscape:connector-curvature="0"
       id="path5293"
       d="m 98.68125,114.30523 c -0.31298,0.32831 -0.27622,0.30295 -0.41343,0.39106 -0.0494,0.0316 -0.11153,0.0527 -0.18395,0.0688 0.66976,0.26858 1.31977,0.59517 1.94202,0.99196 3.53412,1.99564 6.35287,5.39812 7.42133,9.33479 0.4137,2.44442 1.1355,5.00444 0.22342,7.42996 -0.61108,2.90239 -1.86842,5.70875 -4.01334,7.80272 -2.05893,2.33321 -4.91533,3.85402 -7.94412,4.47378 -2.89212,0.94463 -5.9663,0.27622 -8.82809,-0.41917 -3.10369,-0.93152 -5.50603,-3.28404 -7.57585,-5.6658 -1.68854,-2.61508 -3.02644,-5.62475 -2.87142,-8.80765 -0.1368,-2.73028 0.46289,-5.4931 1.9285,-7.81835 1.14843,-2.26341 2.86134,-4.24051 4.93582,-5.69135 -0.11393,-0.1858 -0.22057,-0.39598 -0.32179,-0.59978 -0.35747,0.23342 -0.703,0.48835 -1.03365,0.77004 -3.25167,2.46558 -5.20006,6.34908 -5.97096,10.297 -0.26903,2.25554 -0.45253,4.62058 0.35733,6.79474 0.93356,3.21179 2.69904,6.17042 5.17759,8.42745 1.98145,1.20856 3.78644,2.81278 6.16368,3.15492 4.53129,1.45363 9.67692,0.54264 13.63149,-2.02742 3.98689,-2.81699 7.05528,-7.22698 7.35117,-12.20236 0.4491,-4.80674 -1.41937,-9.70662 -4.64549,-13.24093 -1.6455,-1.3048 -3.40858,-2.57855 -5.33026,-3.46437 z"
       style="fill:#ffffff;fill-opacity:1;stroke:none;stroke-width:0.058635"
       inkscape:export-xdpi="96"
       inkscape:export-ydpi="96" />
    <path
       style="fill:#ffffff;fill-opacity:1;stroke:none;stroke-width:0.058635px;stroke-linecap:butt;stroke-linejoin:miter;stroke-opacity:1"
       d="m 89.77125,104.39346 c -1.84306,0.22834 -3.2028,1.88957 -3.6943,3.59086 -0.24408,0.90996 -0.22401,1.91037 0.16437,2.77806 0.32551,-1.23003 0.52673,-2.59474 1.50183,-3.5113 1.78931,-1.90368 5.05092,-1.67786 6.85229,0.0906 0.45901,0.22559 1.12258,1.8898 0.95232,0.6722 -0.41976,-2.10445 -2.48678,-3.65357 -4.6076,-3.64398 -0.4218,0.0271 -0.6157,0.0199 -1.16891,0.0235 z m 7.17259,4.66849 c -1.11796,0.11212 -2.27719,0.85137 -2.75459,1.93285 1.22849,-0.85652 3.09189,-1.33338 4.33816,-0.25697 0.88979,0.82121 0.79878,2.29162 0.0661,3.18304 -0.27885,0.54531 -1.13166,0.81326 -1.16073,1.43429 1.92118,-0.3652 3.47368,-2.60085 2.63746,-4.49169 -0.55719,-1.04215 -1.71552,-1.94777 -2.94854,-1.78782 l -0.15886,-0.0127 z m -11.86098,2.21206 c -1.57168,0.14552 -2.64972,1.61367 -3.08101,3.02019 -0.42568,1.32344 0.0321,2.96473 1.32737,3.6165 1.29097,0.7242 2.91979,0.36312 4.02279,-0.5435 1.17628,-0.83201 2.07855,-1.99776 3.23557,-2.84248 0.36252,-0.16144 2.13121,-0.30534 0.95683,-0.55769 -1.90689,-0.31262 -3.51016,0.98939 -5.09725,1.81629 -0.85064,0.65141 -2.50537,0.84631 -2.83362,-0.45827 -0.23342,-1.05711 0.39096,-2.10116 0.99088,-2.9216 0.39231,-0.76547 1.84834,-0.26085 2.05752,-0.68405 -0.46108,-0.29815 -1.06782,-0.30394 -1.57908,-0.44539 z m 11.3527,2.67118 c -1.41647,1.4266 -1.43803,3.82233 -0.39986,5.46937 0.15244,-1.16678 -0.11664,-2.34727 0.0784,-3.51238 0.0536,-0.66059 0.29806,-1.29387 0.32143,-1.95699 z m -2.48248,1.35043 c -0.5142,0.74621 -0.55661,1.936 0.10199,2.6187 0.54245,-0.79418 0.20999,-1.8069 -0.10199,-2.6187 z m -1.71562,0.61822 c -0.78889,0.3661 -0.21967,2.56572 0.49955,1.70178 -0.0495,-0.51881 0,-1.45327 -0.49955,-1.70178 z m -3.66121,0.82813 c 0.28658,1.40567 0.35028,2.8621 0.18292,4.28934 1.37248,0.0924 2.98538,-0.23916 3.76026,-1.49161 -0.92339,-0.1194 -2.59524,1.18491 -2.82698,-0.36434 -0.18775,-0.87912 -0.38599,-1.83216 -1.1162,-2.43339 z m 2.1531,0.0909 c -0.35905,0.39978 -0.1783,2.05184 0.44539,1.42583 0.0271,-0.49114 -0.0443,-1.10882 -0.44539,-1.42583 z"
       id="path5295"
       inkscape:connector-curvature="0"
       inkscape:export-xdpi="96"
       inkscape:export-ydpi="96" />
    <path
       inkscape:connector-curvature="0"
       id="path5301"
       d="m 87.59737,138.05254 c -0.10891,0.0154 -0.20719,0.0827 -0.25909,0.18901 -0.0837,0.1703 -0.0163,0.38599 0.15836,0.45674 l 1.15531,0.46515 c -0.11085,0.29689 -0.13147,0.53807 -0.0402,0.58279 l 1.16864,0.56809 1.52262,-1.0304 -1.99505,-0.96967 c -0.0912,-0.0448 -0.26858,0.12034 -0.43405,0.39033 l -1.07935,-0.62094 c -0.0635,-0.0307 -0.13336,-0.0402 -0.1976,-0.0312 z m 7.70171,-0.54499 c -0.0448,0.01 -0.0861,0.0258 -0.12513,0.0528 l -0.98103,0.76723 c -0.20212,-0.24363 -0.39991,-0.38215 -0.48445,-0.32491 l -4.98184,3.37024 c -0.0839,0.0572 -0.0294,0.29241 0.12093,0.57063 l -1.077,0.625 c -0.15669,0.10597 -0.19806,0.31719 -0.0919,0.47388 0.10705,0.15651 0.32487,0.20832 0.47387,0.0915 l 0.98098,-0.76782 c 0.20208,0.24367 0.39983,0.38269 0.48441,0.32554 l 4.98243,-3.37029 c 0.084,-0.0572 0.0294,-0.29304 -0.12243,-0.57116 l 1.07755,-0.62442 c 0.16415,-0.0949 0.19792,-0.31786 0.0919,-0.47456 -0.0791,-0.11745 -0.21899,-0.16957 -0.34937,-0.14367 z m -1.75097,2.87006 -1.52253,1.02971 1.99627,0.97027 c 0.0912,0.0448 0.26814,-0.1203 0.43355,-0.39029 l 1.0799,0.62017 c 0.16397,0.0944 0.37396,0.0122 0.45665,-0.15737 0.0838,-0.17025 0.0122,-0.37401 -0.15832,-0.4567 l -1.15517,-0.46515 c 0.1109,-0.29679 0.13075,-0.53807 0.0389,-0.58269 z"
       style="vector-effect:none;fill:#ffffff;fill-opacity:1;stroke:none;stroke-width:0.175905;stroke-linecap:round;stroke-linejoin:round;stroke-miterlimit:4;stroke-dasharray:0.527715, 0.52771500000000005;stroke-dashoffset:0;stroke-opacity:1;marker:none"
       inkscape:export-xdpi="96"
       inkscape:export-ydpi="96" />
    <text
       transform="matrix(0.99560553,0.02581487,-0.02719656,1.0037087,0,0)"
       xml:space="preserve"
       style="font-style:normal;font-variant:normal;font-weight:500;font-stretch:normal;font-size:6.95357px;line-height:1.25;font-family:BudNull;-inkscape-font-specification:'BudNull, Medium';font-variant-ligatures:normal;font-variant-caps:normal;font-variant-numeric:normal;font-feature-settings:normal;text-align:start;letter-spacing:0px;word-spacing:0px;writing-mode:lr-tb;text-anchor:start;fill:#ffffff;fill-opacity:1;stroke:none;stroke-width:0.0302991;"
       x="85.129509"
       y="130.17871"
       id="text5299-9"
       inkscape:export-xdpi="96"
       inkscape:export-ydpi="96"><tspan
         sodipodi:role="line"
         id="tspan5297-1"
         x="85.129509"
         y="130.17871"
         style="font-style:normal;font-variant:normal;font-weight:normal;font-stretch:normal;font-size:6.95357px;font-family:Algerian;-inkscape-font-specification:Algerian;font-variant-ligatures:normal;font-variant-caps:normal;font-variant-numeric:normal;font-feature-settings:normal;text-align:start;writing-mode:lr-tb;text-anchor:start;fill:#ffffff;fill-opacity:1;stroke-width:0.0302991;">Dough</tspan></text>
    <text
       transform="matrix(0.99560553,0.02581487,-0.02719656,1.0037087,0,0)"
       xml:space="preserve"
       style="font-style:normal;font-variant:normal;font-weight:500;font-stretch:normal;font-size:2.54177px;line-height:1.25;font-family:BudNull;-inkscape-font-specification:'BudNull, Medium';font-variant-ligatures:normal;font-variant-caps:normal;font-variant-numeric:normal;font-feature-settings:normal;text-align:start;letter-spacing:0px;word-spacing:0px;writing-mode:lr-tb;text-anchor:start;fill:#ffffff;fill-opacity:1;stroke:none;stroke-width:0.0110754;"
       x="91.649757"
       y="133.39938"
       id="text5299-9-5"
       inkscape:export-xdpi="96"
       inkscape:export-ydpi="96"><tspan
         sodipodi:role="line"
         id="tspan5297-1-2"
         x="91.649757"
         y="133.39938"
         style="font-style:normal;font-variant:normal;font-weight:normal;font-stretch:normal;font-size:2.54177px;font-family:'Bauhaus 93';-inkscape-font-specification:'Bauhaus 93, ';font-variant-ligatures:normal;font-variant-caps:normal;font-variant-numeric:normal;font-feature-settings:normal;text-align:start;writing-mode:lr-tb;text-anchor:start;fill:#ffffff;fill-opacity:1;stroke-width:0.0110754;">BAKERS</tspan></text>
    <text
       transform="matrix(0.99570163,0.02179757,-0.02314656,1.0038102,0,0)"
       xml:space="preserve"
       style="font-style:normal;font-variant:normal;font-weight:500;font-stretch:normal;font-size:6.95357px;line-height:1.25;font-family:BudNull;-inkscape-font-specification:'BudNull, Medium';font-variant-ligatures:normal;font-variant-caps:normal;font-variant-numeric:normal;font-feature-settings:normal;text-align:center;letter-spacing:0px;word-spacing:0px;writing-mode:lr-tb;text-anchor:middle;fill:#ffffff;fill-opacity:1;stroke:none;stroke-width:0.0302991;"
       x="107.41015"
       y="124.18658"
       id="text5299"
       inkscape:export-xdpi="96"
       inkscape:export-ydpi="96"><tspan
         sodipodi:role="line"
         id="tspan5297"
         x="107.41015"
         y="124.18658"
         style="font-style:normal;font-variant:normal;font-weight:normal;font-stretch:normal;font-size:6.95357px;font-family:Algerian;-inkscape-font-specification:Algerian;font-variant-ligatures:normal;font-variant-caps:normal;font-variant-numeric:normal;font-feature-settings:normal;text-align:end;writing-mode:lr-tb;text-anchor:end;fill:#ffffff;fill-opacity:1;stroke-width:0.0302991;"
         dx="0.02 0 0.02">Cookie</tspan></text>
    <text
       xml:space="preserve"
       style="font-style:normal;font-weight:normal;font-size:10.5833px;line-height:0.75;font-family:sans-serif;text-align:start;text-anchor:start;fill:#ffffff;fill-opacity:1;stroke:none;stroke-width:0.264583;"
       x="117.6479"
       y="122.40945"
       id="text268"
       inkscape:export-xdpi="96"
       inkscape:export-ydpi="96"><tspan
         sodipodi:role="line"
         x="117.6479"
         y="122.40945"
         style="font-style:normal;font-variant:normal;font-weight:normal;font-stretch:normal;font-family:Algerian;-inkscape-font-specification:Algerian;text-align:start;text-anchor:start;stroke-width:0.264583;fill:#ffffff;"
         id="tspan270">COOKIE</tspan><tspan
         sodipodi:role="line"
         x="117.6479"
         y="130.46892"
         style="font-style:normal;font-variant:normal;font-weight:normal;font-stretch:normal;font-family:Algerian;-inkscape-font-specification:Algerian;text-align:start;text-anchor:start;stroke-width:0.264583;fill:#ffffff;"
         id="tspan274">DOUGH</tspan><tspan
         sodipodi:role="line"
         x="117.6479"
         y="138.5284"
         style="font-style:normal;font-variant:normal;font-weight:normal;font-stretch:normal;font-family:Algerian;-inkscape-font-specification:Algerian;text-align:start;text-anchor:start;stroke-width:0.264583;fill:#ffffff;"
         id="tspan276">Bakers</tspan></text>
    <circle
       id="path22"
       style="fill:#ffffff;stroke:#000000;stroke-width:0.264583"
       cx="96.484299"
       cy="129.09119"
       r="0.035322174"
       inkscape:export-xdpi="96"
       inkscape:export-ydpi="96" />
    <rect
       style="fill:#ffffff;stroke-width:0.264583"
       id="rect30"
       width="0.47247022"
       height="34.58482"
       x="113.67633"
       y="110.18005"
       inkscape:export-xdpi="96"
       inkscape:export-ydpi="96" />
  </g>
</svg>
