<?xml version="1.0" encoding="UTF-8" standalone="no"?>
<svg
   xmlns:dc="http://purl.org/dc/elements/1.1/"
   xmlns:cc="http://creativecommons.org/ns#"
   xmlns:rdf="http://www.w3.org/1999/02/22-rdf-syntax-ns#"
   xmlns:svg="http://www.w3.org/2000/svg"
   xmlns="http://www.w3.org/2000/svg"
   xmlns:sodipodi="http://sodipodi.sourceforge.net/DTD/sodipodi-0.dtd"
   xmlns:inkscape="http://www.inkscape.org/namespaces/inkscape"
   width="396.87506mm"
   height="233.3625mm"
   viewBox="0 0 396.87506 233.3625"
   version="1.1"
   id="svg5005"
   inkscape:version="1.0.2-2 (e86c870879, 2021-01-15)"
   sodipodi:docname="Logos.svg">
  <defs
     id="defs4999">
    <clipPath
       clipPathUnits="userSpaceOnUse"
       id="clipPath5287">
      <path
         inkscape:connector-curvature="0"
         style="opacity:0.86499999;vector-effect:none;fill:#f1eee2;fill-opacity:1;stroke:none;stroke-width:0.9535923;stroke-linecap:round;stroke-linejoin:round;stroke-miterlimit:4;stroke-dasharray:none;stroke-dashoffset:0;stroke-opacity:1;marker:none;paint-order:markers fill stroke"
         d="m 3102.5042,1507.2043 h 396.875 v 233.3625 h -396.875 z"
         id="path5289" />
    </clipPath>
  </defs>
  <sodipodi:namedview
     id="base"
     pagecolor="#ffffff"
     bordercolor="#666666"
     borderopacity="1.0"
     inkscape:pageopacity="0.0"
     inkscape:pageshadow="2"
     inkscape:zoom="0.25"
     inkscape:cx="681.01186"
     inkscape:cy="575.31627"
     inkscape:document-units="px"
     inkscape:current-layer="layer1"
     showgrid="false"
     inkscape:showpageshadow="false"
     borderlayer="true"
     fit-margin-top="0"
     fit-margin-left="0"
     fit-margin-right="0"
     fit-margin-bottom="0"
     inkscape:window-width="1366"
     inkscape:window-height="715"
     inkscape:window-x="-8"
     inkscape:window-y="-8"
     inkscape:window-maximized="1"
     inkscape:document-rotation="0" />
  <metadata
     id="metadata5002">
    <rdf:RDF>
      <cc:Work
         rdf:about="">
        <dc:format>image/svg+xml</dc:format>
        <dc:type
           rdf:resource="http://purl.org/dc/dcmitype/StillImage" />
        <dc:title />
      </cc:Work>
    </rdf:RDF>
  </metadata>
  <g
     inkscape:label="Layer 1"
     inkscape:groupmode="layer"
     id="layer1"
     transform="translate(373.8185,109.21101)">
    <path
       inkscape:connector-curvature="0"
       id="path5291"
       d="m -192.76737,4.9293465 c -0.82149,0.3954837 -1.60726,0.86199 -2.33032,1.4509209 -2.422,1.5102796 -4.07758,3.9169986 -5.46937,6.3457786 -1.1194,2.649443 -2.25093,5.427956 -2.05725,8.363613 -0.34106,2.318201 0.29227,4.549149 1.14535,6.671551 1.02624,3.033896 2.92965,5.667425 5.22032,7.874051 2.09233,1.091604 3.77264,3.052793 6.2323,3.339731 2.75473,0.984551 5.74998,1.376282 8.64346,0.805841 2.35188,-0.330383 4.68576,-1.095039 6.73701,-2.287006 3.89977,-2.539405 7.25139,-6.273309 8.52754,-10.824221 0.76379,-3.056455 1.06371,-6.289584 0.19453,-9.36037 -0.45778,-2.24008 -1.34834,-4.384725 -2.63981,-6.265804 -1.64717,-3.2774796 -5.06656,-5.0453571 -8.10145,-6.8125113 -0.0357,-0.014467 -0.072,-0.028481 -0.10787,-0.042948 0,0.037975 0,0.07152 0,0.095345 -0.0231,0.2688549 -0.0402,0.8184995 -0.0971,1.0054366 -0.0312,0.1028493 -0.118,0.2366212 -0.25552,0.4052488 2.14451,0.9686368 4.1,2.3781468 5.71331,4.068537 1.61358,2.0164333 3.28318,4.1254093 3.80484,6.7217773 0.42649,1.875519 0.78373,3.805152 0.83938,5.721269 -0.66967,3.539507 -1.51661,7.277253 -4.04005,10.001335 -2.13773,2.699986 -5.09961,4.849333 -8.51778,5.542153 -1.63352,0.787939 -3.3943,0.707151 -5.13564,0.837623 -2.33501,-0.368359 -4.76642,-0.512619 -6.91391,-1.600516 -2.50211,-0.968049 -4.28156,-3.086292 -6.19148,-4.860996 -1.87697,-2.719155 -3.59507,-5.800158 -3.60719,-9.197078 -0.16306,-2.983397 0.008,-6.144781 1.64862,-8.7402 1.32823,-2.837374 3.32454,-5.3884435 5.94311,-7.1171253 -0.0199,-0.4236939 0.33852,-0.9152457 0.41492,-1.1541725 0.0689,-0.2158252 0.21881,-0.6270416 0.4019,-0.9873531 z"
       style="opacity:1;fill:#92505b;fill-opacity:1;stroke:none;stroke-width:0.058635" />
    <path
       inkscape:connector-curvature="0"
       id="path5293"
       d="m -177.61503,6.2319836 c -0.31298,0.3283039 -0.27622,0.302942 -0.41343,0.3910533 -0.0494,0.031646 -0.11153,0.052668 -0.18395,0.068762 0.66976,0.2685836 1.31977,0.5951696 1.94202,0.9919644 3.53412,1.9956379 6.35287,5.3981187 7.42133,9.3347827 0.4137,2.444422 1.1355,5.004442 0.22342,7.429968 -0.61108,2.902384 -1.86842,5.708746 -4.01334,7.802712 -2.05893,2.333209 -4.91533,3.854023 -7.94412,4.473786 -2.89212,0.944631 -5.9663,0.276223 -8.82809,-0.419173 -3.10369,-0.931521 -5.50603,-3.284035 -7.57585,-5.665798 -1.68854,-2.615085 -3.02644,-5.624749 -2.87142,-8.807651 -0.1368,-2.730276 0.46289,-5.493102 1.9285,-7.818355 1.14843,-2.263407 2.86134,-4.2405098 4.93582,-5.6913403 -0.11393,-0.1858068 -0.22057,-0.395981 -0.32179,-0.5997808 -0.35747,0.2334113 -0.703,0.4883419 -1.03365,0.770036 -3.25167,2.4655801 -5.20006,6.3490791 -5.97096,10.2969991 -0.26903,2.255542 -0.45253,4.620578 0.35733,6.794744 0.93356,3.211791 2.69904,6.170415 5.17759,8.427448 1.98145,1.208558 3.78644,2.812781 6.16368,3.154919 4.53129,1.453633 9.67692,0.542637 13.63149,-2.027419 3.98689,-2.816986 7.05528,-7.226982 7.35117,-12.202356 0.4491,-4.806746 -1.41937,-9.706622 -4.64549,-13.2409307 -1.6455,-1.304807 -3.40858,-2.5785559 -5.33026,-3.4643707 z"
       style="opacity:1;fill:#92505b;fill-opacity:1;stroke:none;stroke-width:0.058635" />
    <path
       style="opacity:1;fill:#92505b;fill-opacity:1;stroke:none;stroke-width:0.058635px;stroke-linecap:butt;stroke-linejoin:miter;stroke-opacity:1"
       d="m -186.52503,-3.6797944 c -1.84306,0.228348 -3.2028,1.8895788 -3.6943,3.59086423 -0.24408,0.9099562 -0.22401,1.91037467 0.16437,2.77806097 0.32551,-1.2300323 0.52673,-2.59474057 1.50183,-3.51129727 1.78931,-1.90368383 5.05092,-1.67786753 6.85229,0.090553 0.45901,0.2255903 1.12258,1.88980477 0.95232,0.6722048 -0.41976,-2.10445463 -2.48678,-3.65356833 -4.6076,-3.64398413 -0.4218,0.027125 -0.6157,0.019892 -1.16891,0.023508 z m 7.17259,4.66849873 c -1.11796,0.11211697 -2.27719,0.85136597 -2.75459,1.93284327 1.22849,-0.8565199 3.09189,-1.3333789 4.33816,-0.256965 0.88979,0.821212 0.79878,2.2916177 0.0661,3.1830385 -0.27885,0.5453047 -1.13166,0.8132553 -1.16073,1.4342842 1.92118,-0.3651941 3.47368,-2.6008438 2.63746,-4.4916883 -0.55719,-1.0421459 -1.71552,-1.94776207 -2.94854,-1.7878145 l -0.15886,-0.012658 z m -11.86098,2.21205077 c -1.57168,0.1455261 -2.64972,1.6136714 -3.08101,3.0201976 -0.42568,1.323433 0.0321,2.9647268 1.32737,3.6164974 1.29097,0.7241949 2.91979,0.3631149 4.02279,-0.5434963 1.17628,-0.8320168 2.07855,-1.9977627 3.23557,-2.8424831 0.36252,-0.1614394 2.13121,-0.305338 0.95683,-0.5576918 -1.90689,-0.3126166 -3.51016,0.9893876 -5.09725,1.8162959 -0.85064,0.6514089 -2.50537,0.8463027 -2.83362,-0.4582784 -0.23342,-1.0571098 0.39096,-2.1011544 0.99088,-2.9215979 0.39231,-0.7654699 1.84834,-0.2608529 2.05752,-0.6840494 -0.46108,-0.2981499 -1.06782,-0.3039366 -1.57908,-0.445394 z m 11.3527,2.6711881 c -1.41647,1.4265988 -1.43803,3.8223317 -0.39986,5.4693668 0.15244,-1.166785 -0.11664,-2.3472693 0.0784,-3.5123822 0.0536,-0.6605862 0.29806,-1.2938666 0.32143,-1.9569846 z m -2.48248,1.3504225 c -0.5142,0.7462111 -0.55661,1.9360079 0.10199,2.6187011 0.54245,-0.7941773 0.20999,-1.8068925 -0.10199,-2.6187011 z m -1.71562,0.6182259 c -0.78889,0.3660983 -0.21967,2.5657164 0.49955,1.7017828 -0.0495,-0.5188125 0,-1.4532718 -0.49955,-1.7017828 z m -3.66121,0.8281289 c 0.28658,1.4056675 0.35028,2.8621035 0.18292,4.2893355 1.37248,0.09245 2.98538,-0.239153 3.76026,-1.491609 -0.92339,-0.119395 -2.59524,1.184914 -2.82698,-0.364335 -0.18775,-0.879124 -0.38599,-1.8321639 -1.1162,-2.4333915 z m 2.1531,0.090914 c -0.35905,0.3997786 -0.1783,2.0518325 0.44539,1.4258305 0.0271,-0.4911452 -0.0443,-1.1088287 -0.44539,-1.4258305 z"
       id="path5295"
       inkscape:connector-curvature="0" />
    <path
       inkscape:connector-curvature="0"
       id="path5301"
       d="m -188.69891,29.979286 c -0.10891,0.01537 -0.20719,0.08269 -0.25909,0.189016 -0.0837,0.170301 -0.0163,0.38599 0.15836,0.456742 l 1.15531,0.46515 c -0.11085,0.296884 -0.13147,0.538071 -0.0402,0.582782 l 1.16864,0.56809 1.52262,-1.030392 -1.99505,-0.969676 c -0.0912,-0.04476 -0.26858,0.120345 -0.43405,0.39033 l -1.07935,-0.620939 c -0.0635,-0.03074 -0.13336,-0.04024 -0.1976,-0.03119 z m 7.70171,-0.544988 c -0.0448,0.0095 -0.0861,0.02577 -0.12513,0.05276 l -0.98103,0.767233 c -0.20212,-0.243629 -0.39991,-0.382147 -0.48445,-0.324913 l -4.98184,3.370246 c -0.0839,0.05719 -0.0294,0.292409 0.12093,0.570622 l -1.077,0.625007 c -0.15669,0.105969 -0.19806,0.317183 -0.0919,0.473875 0.10705,0.156512 0.32487,0.208321 0.47387,0.0915 l 0.98098,-0.767821 c 0.20208,0.243674 0.39983,0.38269 0.48441,0.325547 l 4.98243,-3.370292 c 0.084,-0.05723 0.0294,-0.293042 -0.12243,-0.571164 l 1.07755,-0.62442 c 0.16415,-0.09489 0.19792,-0.317861 0.0919,-0.474553 -0.0791,-0.117452 -0.21899,-0.169577 -0.34937,-0.143673 z m -1.75097,2.87006 -1.52253,1.029713 1.99627,0.970265 c 0.0912,0.04476 0.26814,-0.1203 0.43355,-0.390285 l 1.0799,0.62017 c 0.16397,0.09444 0.37396,0.01221 0.45665,-0.157371 0.0838,-0.170255 0.0122,-0.37401 -0.15832,-0.456696 l -1.15517,-0.46515 c 0.1109,-0.296794 0.13075,-0.538071 0.0389,-0.582692 z"
       style="opacity:1;vector-effect:none;fill:#92505b;fill-opacity:1;stroke:none;stroke-width:0.175905;stroke-linecap:round;stroke-linejoin:round;stroke-miterlimit:4;stroke-dasharray:0.527715, 0.527715;stroke-dashoffset:0;stroke-opacity:1;marker:none" />
    <path
       inkscape:connector-curvature="0"
       id="path5361"
       d="m -135.76865,8.620788 a 16.739585,16.739585 0 0 1 23.6683,0.4773595 16.739585,16.739585 0 0 1 -0.47747,23.6684045 16.739585,16.739585 0 0 1 -23.6683,-0.477463 16.739585,16.739585 0 0 1 0.47747,-23.668301 z"
       style="opacity:1;vector-effect:none;fill:none;fill-opacity:1;stroke:#f1eee2;stroke-width:0.502833;stroke-linecap:round;stroke-linejoin:round;stroke-miterlimit:4;stroke-dasharray:1.00567, 1.00567;stroke-dashoffset:0;stroke-opacity:1;marker:none;paint-order:normal" />
    <path
       inkscape:connector-curvature="0"
       id="path5973"
       style="font-style:normal;font-variant:normal;font-weight:normal;font-stretch:normal;font-size:medium;line-height:1.25;font-family:'ITC Avant Garde Gothic Pro';-inkscape-font-specification:'ITC Avant Garde Gothic Pro';text-align:start;letter-spacing:0px;word-spacing:0px;text-anchor:start;fill:#f1eee2;fill-opacity:1;stroke:none;stroke-width:0.144546"
       d="m -131.94083,25.74112 v -0.356749 h -0.47065 v -1.233577 h -0.40618 v 1.590326 z" />
    <path
       inkscape:connector-curvature="0"
       id="path5975"
       style="font-style:normal;font-variant:normal;font-weight:normal;font-stretch:normal;font-size:medium;line-height:1.25;font-family:'ITC Avant Garde Gothic Pro';-inkscape-font-specification:'ITC Avant Garde Gothic Pro';text-align:start;letter-spacing:0px;word-spacing:0px;text-anchor:start;fill:#f1eee2;fill-opacity:1;stroke:none;stroke-width:0.144546"
       d="m -130.19456,24.945957 c 0,-0.468501 -0.37609,-0.82525 -0.8403,-0.82525 -0.27078,0 -0.50933,0.111753 -0.67266,0.326662 -0.0408,0.05373 -0.0795,0.11605 -0.10316,0.178374 -0.043,0.109603 -0.0623,0.221356 -0.0623,0.339556 0,0.457756 0.38684,0.805908 0.836,0.805908 0.46635,0 0.84244,-0.3546 0.84244,-0.82525 z m -0.40618,0.0021 c 0,0.242847 -0.17193,0.466352 -0.42767,0.466352 -0.26434,0 -0.43841,-0.219207 -0.43841,-0.472799 0,-0.249294 0.17407,-0.464203 0.43411,-0.464203 0.26004,0 0.43197,0.223505 0.43197,0.47065 z" />
    <path
       inkscape:connector-curvature="0"
       id="path5977"
       style="font-style:normal;font-variant:normal;font-weight:normal;font-stretch:normal;font-size:medium;line-height:1.25;font-family:'ITC Avant Garde Gothic Pro';-inkscape-font-specification:'ITC Avant Garde Gothic Pro';text-align:start;letter-spacing:0px;word-spacing:0px;text-anchor:start;fill:#f1eee2;fill-opacity:1;stroke:none;stroke-width:0.144546"
       d="m -128.34943,24.920168 c 0,-0.02794 0,-0.05588 -0.002,-0.08381 h -0.94345 v 0.324512 h 0.47494 c -0.0494,0.176225 -0.20631,0.255741 -0.38038,0.255741 -0.27079,0 -0.43627,-0.217058 -0.43627,-0.477097 0,-0.251444 0.17408,-0.462054 0.43412,-0.462054 0.15043,0 0.27723,0.07522 0.3503,0.206312 h 0.45561 c -0.0967,-0.339556 -0.45131,-0.563061 -0.79517,-0.563061 -0.46635,0 -0.85104,0.341705 -0.85104,0.818803 0,0.47065 0.37609,0.833846 0.8446,0.833846 0.48784,0 0.84889,-0.365345 0.84889,-0.853188 z" />
    <path
       inkscape:connector-curvature="0"
       id="path5979"
       style="font-style:normal;font-variant:normal;font-weight:normal;font-stretch:normal;font-size:medium;line-height:1.25;font-family:'ITC Avant Garde Gothic Pro';-inkscape-font-specification:'ITC Avant Garde Gothic Pro';text-align:start;letter-spacing:0px;word-spacing:0px;text-anchor:start;fill:#f1eee2;fill-opacity:1;stroke:none;stroke-width:0.144546"
       d="m -126.5302,24.945957 c 0,-0.468501 -0.37609,-0.82525 -0.84029,-0.82525 -0.27079,0 -0.50934,0.111753 -0.67267,0.326662 -0.0408,0.05373 -0.0795,0.11605 -0.10315,0.178374 -0.043,0.109603 -0.0623,0.221356 -0.0623,0.339556 0,0.457756 0.38684,0.805908 0.836,0.805908 0.46635,0 0.84244,-0.3546 0.84244,-0.82525 z m -0.40618,0.0021 c 0,0.242847 -0.17192,0.466352 -0.42766,0.466352 -0.26434,0 -0.43842,-0.219207 -0.43842,-0.472799 0,-0.249294 0.17408,-0.464203 0.43412,-0.464203 0.26004,0 0.43196,0.223505 0.43196,0.47065 z" />
    <path
       inkscape:connector-curvature="0"
       id="path5981"
       style="font-style:normal;font-variant:normal;font-weight:normal;font-stretch:normal;font-size:medium;line-height:1.25;font-family:'ITC Avant Garde Gothic Pro';-inkscape-font-specification:'ITC Avant Garde Gothic Pro';text-align:start;letter-spacing:0px;word-spacing:0px;text-anchor:start;fill:#f1eee2;fill-opacity:1;stroke:none;stroke-width:0.144546"
       d="m -124.79209,24.507543 v -0.356749 h -1.03156 v 0.356749 h 0.31377 v 1.233577 h 0.40617 v -1.233577 z" />
    <path
       inkscape:connector-curvature="0"
       id="path5983"
       style="font-style:normal;font-variant:normal;font-weight:normal;font-stretch:normal;font-size:medium;line-height:1.25;font-family:'ITC Avant Garde Gothic Pro';-inkscape-font-specification:'ITC Avant Garde Gothic Pro';text-align:start;letter-spacing:0px;word-spacing:0px;text-anchor:start;fill:#f1eee2;fill-opacity:1;stroke:none;stroke-width:0.144546"
       d="m -123.74753,25.74112 v -0.356749 h -0.49429 v -0.272934 h 0.47924 v -0.356749 h -0.47924 v -0.247145 h 0.49429 v -0.356749 h -0.88328 v 1.590326 z" />
    <path
       inkscape:connector-curvature="0"
       id="path5985"
       style="font-style:normal;font-variant:normal;font-weight:normal;font-stretch:normal;font-size:medium;line-height:1.25;font-family:'ITC Avant Garde Gothic Pro';-inkscape-font-specification:'ITC Avant Garde Gothic Pro';text-align:start;letter-spacing:0px;word-spacing:0px;text-anchor:start;fill:#f1eee2;fill-opacity:1;stroke:none;stroke-width:0.144546"
       d="m -121.81906,25.74112 v -1.590326 h -0.52438 l -0.31162,1.046606 h -0.004 l -0.31592,-1.046606 h -0.52223 v 1.590326 h 0.37394 l -0.0129,-1.190595 0.004,-0.0043 0.33955,1.194893 h 0.26864 l 0.33955,-1.194893 0.004,0.0043 -0.0129,1.190595 z" />
    <path
       inkscape:connector-curvature="0"
       id="path5987"
       style="font-style:normal;font-variant:normal;font-weight:normal;font-stretch:normal;font-size:medium;line-height:1.25;font-family:'ITC Avant Garde Gothic Pro';-inkscape-font-specification:'ITC Avant Garde Gothic Pro';text-align:start;letter-spacing:0px;word-spacing:0px;text-anchor:start;fill:#f1eee2;fill-opacity:1;stroke:none;stroke-width:0.144546"
       d="m -120.33606,24.688066 c 0,-0.16333 -0.0623,-0.315916 -0.18697,-0.421221 -0.13109,-0.109603 -0.32666,-0.116051 -0.48999,-0.116051 h -0.52008 v 1.590326 h 0.38899 v -0.498589 h 0.17622 c 0.17838,0 0.32666,-0.01719 0.46421,-0.137541 0.11175,-0.09886 0.16762,-0.270786 0.16762,-0.416924 z m -0.38898,0.0064 c 0,0.161181 -0.12035,0.191269 -0.25359,0.191269 h -0.16548 v -0.37824 h 0.15043 c 0.13325,0 0.26864,0.02149 0.26864,0.186971 z" />
    <path
       inkscape:connector-curvature="0"
       id="path5991"
       style="font-style:normal;font-variant:normal;font-weight:normal;font-stretch:normal;font-size:medium;line-height:1.25;font-family:'ITC Avant Garde Gothic Pro';-inkscape-font-specification:'ITC Avant Garde Gothic Pro';text-align:start;letter-spacing:0px;word-spacing:0px;text-anchor:start;fill:#f1eee2;fill-opacity:1;stroke:none;stroke-width:0.144546"
       d="m -117.59093,25.74112 -0.63183,-1.590326 h -0.32022 l -0.63828,1.590326 h 0.43627 l 0.0838,-0.229953 h 0.55232 l 0.0774,0.229953 z m -0.62538,-0.552316 h -0.33311 l 0.16333,-0.543719 h 0.004 0.002 z" />
    <path
       inkscape:connector-curvature="0"
       id="path5993"
       style="font-style:normal;font-variant:normal;font-weight:normal;font-stretch:normal;font-size:medium;line-height:1.25;font-family:'ITC Avant Garde Gothic Pro';-inkscape-font-specification:'ITC Avant Garde Gothic Pro';text-align:start;letter-spacing:0px;word-spacing:0px;text-anchor:start;fill:#f1eee2;fill-opacity:1;stroke:none;stroke-width:0.144546"
       d="m -116.57351,24.507543 v -0.356749 h -1.03156 v 0.356749 h 0.31377 v 1.233577 h 0.40618 v -1.233577 z" />
    <path
       inkscape:connector-curvature="0"
       id="path5995"
       style="font-style:normal;font-variant:normal;font-weight:normal;font-stretch:normal;font-size:medium;line-height:1.25;font-family:'ITC Avant Garde Gothic Pro';-inkscape-font-specification:'ITC Avant Garde Gothic Pro';text-align:start;letter-spacing:0px;word-spacing:0px;text-anchor:start;fill:#f1eee2;fill-opacity:1;stroke:none;stroke-width:0.144546"
       d="m -115.52895,25.74112 v -0.356749 h -0.49429 v -0.272934 h 0.47925 v -0.356749 h -0.47925 v -0.247145 h 0.49429 v -0.356749 h -0.88327 v 1.590326 z" />
    <text
       transform="matrix(0.99560553,0.02581487,-0.02719656,1.0037087,0,0)"
       xml:space="preserve"
       style="font-style:normal;font-variant:normal;font-weight:500;font-stretch:normal;font-size:6.95357px;line-height:1.25;font-family:BudNull;-inkscape-font-specification:'BudNull, Medium';font-variant-ligatures:normal;font-variant-caps:normal;font-variant-numeric:normal;font-feature-settings:normal;text-align:start;letter-spacing:0px;word-spacing:0px;writing-mode:lr-tb;text-anchor:start;fill:#92505b;fill-opacity:1;stroke:none;stroke-width:0.0302991"
       x="-195.13069"
       y="29.712938"
       id="text5299-9"><tspan
         sodipodi:role="line"
         id="tspan5297-1"
         x="-195.13069"
         y="29.712938"
         style="font-style:normal;font-variant:normal;font-weight:normal;font-stretch:normal;font-size:6.95357px;font-family:Algerian;-inkscape-font-specification:Algerian;font-variant-ligatures:normal;font-variant-caps:normal;font-variant-numeric:normal;font-feature-settings:normal;text-align:start;writing-mode:lr-tb;text-anchor:start;fill:#92505b;fill-opacity:1;stroke-width:0.0302991">Dough</tspan></text>
    <text
       transform="matrix(0.99560553,0.02581487,-0.02719656,1.0037087,0,0)"
       xml:space="preserve"
       style="font-style:normal;font-variant:normal;font-weight:500;font-stretch:normal;font-size:2.54177px;line-height:1.25;font-family:BudNull;-inkscape-font-specification:'BudNull, Medium';font-variant-ligatures:normal;font-variant-caps:normal;font-variant-numeric:normal;font-feature-settings:normal;text-align:start;letter-spacing:0px;word-spacing:0px;writing-mode:lr-tb;text-anchor:start;fill:#92505b;fill-opacity:1;stroke:none;stroke-width:0.0110754"
       x="-188.61044"
       y="32.933609"
       id="text5299-9-5"><tspan
         sodipodi:role="line"
         id="tspan5297-1-2"
         x="-188.61044"
         y="32.933609"
         style="font-style:normal;font-variant:normal;font-weight:normal;font-stretch:normal;font-size:2.54177px;font-family:'Bauhaus 93';-inkscape-font-specification:'Bauhaus 93, ';font-variant-ligatures:normal;font-variant-caps:normal;font-variant-numeric:normal;font-feature-settings:normal;text-align:start;writing-mode:lr-tb;text-anchor:start;fill:#92505b;fill-opacity:1;stroke-width:0.0110754">BAKERS</tspan></text>
    <text
       transform="matrix(0.99570163,0.02179757,-0.02314656,1.0038102,0,0)"
       xml:space="preserve"
       style="font-style:normal;font-variant:normal;font-weight:500;font-stretch:normal;font-size:6.95357px;line-height:1.25;font-family:BudNull;-inkscape-font-specification:'BudNull, Medium';font-variant-ligatures:normal;font-variant-caps:normal;font-variant-numeric:normal;font-feature-settings:normal;text-align:center;letter-spacing:0px;word-spacing:0px;writing-mode:lr-tb;text-anchor:middle;opacity:1;fill:#92505b;fill-opacity:1;stroke:none;stroke-width:0.0302991"
       x="-172.4404"
       y="22.600458"
       id="text5299"><tspan
         sodipodi:role="line"
         id="tspan5297"
         x="-172.4404"
         y="22.600458"
         style="font-style:normal;font-variant:normal;font-weight:normal;font-stretch:normal;font-size:6.95357px;font-family:Algerian;-inkscape-font-specification:Algerian;font-variant-ligatures:normal;font-variant-caps:normal;font-variant-numeric:normal;font-feature-settings:normal;text-align:end;writing-mode:lr-tb;text-anchor:end;fill:#92505b;fill-opacity:1;stroke-width:0.0302991"
         dx="0.02 0 0.02">Cookie</tspan></text>
  </g>
</svg>
